<?xml version="1.0" encoding="UTF-8"?>
<svg id="Ebene_3" data-name="Ebene 3" xmlns="http://www.w3.org/2000/svg" version="1.1" viewBox="0 0 300 300">
  <defs>
    <style>
      .cls-1 {
        fill: #99bddf;
      }

      .cls-1, .cls-2, .cls-3, .cls-4, .cls-5, .cls-6 {
        stroke-width: 0px;
      }

      .cls-2 {
        fill: #9a9cc2;
      }

      .cls-3 {
        fill: #cbbbd6;
      }

      .cls-4 {
        fill: #0f4f75;
      }

      .cls-5 {
        fill: #d5e9f4;
      }

      .cls-6 {
        fill: #f0e9f9;
      }
    </style>
  </defs>
  <rect class="cls-6" x="170" y="155" width="120" height="110" rx="5" ry="5"/>
  <rect class="cls-5" x="170" y="10" width="120" height="135" rx="5" ry="5"/>
  <rect class="cls-3" x="10" y="155" width="120" height="135" rx="5" ry="5"/>
  <path class="cls-6" d="M40,212.5c0-16.57,13.43-30,30-30,16.57,0,30,13.43,30,30,0,8.12-3.29,15.9-9.13,21.55-1.01.98-1.79,2-2.26,3.09l-3.81,8.84c-.4.92-1.3,1.51-2.29,1.51h-25c-1,0-1.9-.59-2.3-1.51l-3.8-8.85c-.55-1.17-1.32-2.22-2.26-3.09-5.85-5.64-9.14-13.42-9.13-21.55M55,255c0-1.38,1.12-2.5,2.5-2.5h25c1.38,0,2.5,1.12,2.5,2.5s-1.12,2.5-2.5,2.5l-1.12,2.23c-.85,1.69-2.58,2.76-4.47,2.76h-13.82c-1.89,0-3.62-1.07-4.47-2.76l-1.12-2.23c-1.38,0-2.5-1.12-2.5-2.5"/>
  <g>
    <path class="cls-2" d="M200,190c0-5.52,4.48-10,10-10h30c5.52,0,10,4.48,10,10v57.5c0,1.38-1.12,2.5-2.5,2.5-.49,0-.97-.15-1.38-.42l-21.12-14.08-21.12,14.08c-1.15.76-2.7.45-3.47-.7-.27-.41-.42-.89-.42-1.38v-57.5Z"/>
    <path class="cls-2" d="M211.34,175c1.79-3.09,5.09-5,8.66-5h30c5.52,0,10,4.48,10,10v57.5c0,1.38-1.12,2.5-2.5,2.5-.49,0-.97-.15-1.38-.42l-1.12-.74v-58.84c0-2.76-2.24-5-5-5h-38.66Z"/>
  </g>
  <path class="cls-1" d="M162.57,274.4c-2.05,0-3.71-1.65-3.71-3.69V46.77c-.39-24.52-12.23-36.77-35.52-36.77-7.72,0-14.41,1.56-20.07,4.68-4.05,2.23-7.55,4.96-10.51,8.2-1.62,1.77-4.46,1.64-5.82-.34-5.76-8.36-15.02-12.54-27.78-12.54-10.25,0-18.87,2.74-25.85,8.22-2.37,1.86-5.87.27-5.99-2.73h0c-.08-1.97-1.72-3.53-3.7-3.53h-9.91c-2.05,0-3.71,1.65-3.71,3.69v125.17c0,2.04,1.66,3.69,3.71,3.69h10.74c2.05,0,3.71-1.65,3.71-3.69V41.24c0-.53.11-1.07.34-1.56,4.46-9.58,12.49-14.37,24.1-14.37,15.11,0,22.67,7.67,22.67,23.02v92.47c0,2.04,1.66,3.69,3.71,3.69h10.84c2.05,0,3.71-1.65,3.71-3.69V47.7c0-.16,0-.32.03-.48.75-6.65,3.33-11.95,7.73-15.9,4.45-4,10.04-6,16.78-6,8.18,0,14,1.87,17.47,5.61,3.47,3.74,5.2,9.38,5.2,16.92v237.8h.02v.66c0,2.04,1.66,3.69,3.71,3.69h141.86c2.05,0,3.71-1.65,3.71-3.69v-8.23c0-2.04-1.66-3.69-3.71-3.69h-123.73Z"/>
  <circle class="cls-4" cx="230" cy="77.5" r="45"/>
</svg>