<?xml version="1.0" encoding="UTF-8"?>
<svg id="Layer_1" data-name="Layer 1" xmlns="http://www.w3.org/2000/svg" xmlns:xlink="http://www.w3.org/1999/xlink" viewBox="0 0 401.34 329.37">
  <defs>
    <style>
      .cls-1 {
        fill: #7777e8;
      }

      .cls-1, .cls-2, .cls-3, .cls-4, .cls-5, .cls-6 {
        stroke-width: 0px;
      }

      .cls-7 {
        clip-path: url(#clippath);
      }

      .cls-2 {
        fill: none;
      }

      .cls-3, .cls-8, .cls-9 {
        fill: #415d6e;
      }

      .cls-4 {
        fill: #f7de97;
      }

      .cls-10 {
        fill: #a8a8ed;
        stroke: #efbc3f;
        stroke-miterlimit: 10;
        stroke-width: 10px;
      }

      .cls-5 {
        fill: #f6f6f6;
      }

      .cls-8 {
        letter-spacing: -.06em;
      }

      .cls-8, .cls-9 {
        font-family: Raleway-ExtraBold, Raleway;
        font-size: 24px;
        font-weight: 700;
      }

      .cls-8, .cls-9, .cls-11 {
        isolation: isolate;
      }

      .cls-9 {
        letter-spacing: -.06em;
      }

      .cls-6 {
        fill: #efbc3f;
      }
    </style>
    <clipPath id="clippath">
      <path class="cls-2" d="M334.33,80.91c-.27,53.78-22.09,152.18-114.27,196.9-4.65,2.26-9.69,3.34-14.71,3.25-4.63-.08-9.24-1.17-13.53-3.25-32.6-15.82-56.42-38.36-73.57-63.27-5.93-8.59-11.06-17.47-15.48-26.45-19.02-38.55-25.07-78.99-25.21-107.18-.06-14.21,8.72-25.97,20.49-31.01l4.72-2.03,15.48-6.66L198.82,6.58c2.01-.95,4.26-1.48,6.52-1.55.19-.02.4-.02.59-.02,2.46,0,4.93.54,7.17,1.57l100.72,43.32c11.78,5.04,20.55,16.8,20.5,31.01h0Z"/>
    </clipPath>
  </defs>
  <g>
    <path class="cls-10" d="M338.62,82.39c-.28,54.83-22.83,155.16-118.08,200.76-4.8,2.3-10.01,3.41-15.2,3.31-4.78-.08-9.55-1.19-13.98-3.31-33.69-16.13-58.3-39.11-76.02-64.51-6.13-8.76-11.43-17.81-16-26.97-19.65-39.3-25.91-80.54-26.05-109.28-.06-14.49,9.01-26.48,21.17-31.62l4.88-2.07,16-6.79L198.6,6.6c2.08-.97,4.4-1.51,6.74-1.58.2-.02.41-.02.61-.02,2.54,0,5.09.55,7.41,1.6l104.08,44.17c12.17,5.14,21.23,17.13,21.18,31.62h0Z"/>
    <g class="cls-7">
      <path class="cls-1" d="M54.26,155.72l55.42-59.72c2.06-2.22,5.48-2.48,7.85-.59l69.1,54.98c2.02,1.61,4.86,1.68,6.96.19l96.44-68.47c2.44-1.73,5.79-1.32,7.74.94l102.16,118.24c1.72,1.99,1.88,4.87.41,7.04-6.64,9.8-27.25,32.49-29.59,33.54l-194.91,87c-1.76.78-3.79.65-5.42-.37L2.45,223.95c-2.73-1.7-3.28-5.48-1.15-7.9l52.94-60.34h.02Z"/>
    </g>
  </g>
  <g>
    <path class="cls-4" d="M205.97,225.36c-3.19,0-6.28-.93-8.92-2.68l-7.13-4.71c-1.68-1.09-3.63-1.68-5.62-1.68-.19,0-.39,0-.58.02l-8.49.51c-.33.02-.65.03-.98.03-6.16,0-11.7-3.43-14.46-8.95l-3.83-7.61c-.96-1.93-2.57-3.54-4.54-4.55l-7.69-3.86c-5.81-2.9-9.31-8.96-8.92-15.43l.52-8.5c.12-2.17-.47-4.37-1.66-6.19l-4.67-7.15c-3.58-5.4-3.58-12.41,0-17.83l4.66-7.09c1.21-1.87,1.78-4.02,1.66-6.2l-.52-8.49c-.39-6.48,3.11-12.54,8.92-15.44l7.61-3.83c1.96-1.01,3.59-2.66,4.56-4.61l3.85-7.63c2.75-5.51,8.29-8.93,14.45-8.93.33,0,.65,0,.98.03l8.5.51c.18,0,.38.02.57.02,2.02,0,3.96-.58,5.62-1.67l7.15-4.68c2.63-1.74,5.72-2.67,8.91-2.67s6.28.93,8.92,2.68l7.09,4.66c1.68,1.1,3.62,1.68,5.62,1.68.19,0,.39,0,.58-.02l8.49-.51c.33-.02.65-.03.98-.03,6.16,0,11.7,3.43,14.46,8.94l3.83,7.61c.98,1.96,2.56,3.53,4.55,4.54l7.69,3.86c5.8,2.9,9.3,8.95,8.91,15.43l-.52,8.5c-.12,2.17.47,4.37,1.67,6.18l4.71,7.1c3.59,5.42,3.59,12.43,0,17.85l-4.71,7.13c-1.21,1.86-1.79,4.01-1.67,6.2l.52,8.49c.39,6.48-3.11,12.54-8.91,15.44l-7.61,3.83c-1.95.98-3.52,2.55-4.54,4.55l-3.86,7.68c-2.75,5.51-8.29,8.94-14.45,8.94-.33,0-.65,0-.98-.03l-8.5-.51c-.18,0-.38-.02-.57-.02-2,0-3.99.59-5.61,1.67l-7.1,4.71c-2.65,1.75-5.73,2.68-8.92,2.68l-.03.03Z"/>
    <path class="cls-6" d="M205.93,69.11c2.54,0,5.07.73,7.27,2.18l7.1,4.67c2.18,1.42,4.7,2.17,7.27,2.17.25,0,.5,0,.75-.02l8.5-.51c.27-.02.53-.02.8-.02,4.97,0,9.54,2.81,11.77,7.28l3.83,7.62c1.28,2.55,3.35,4.59,5.87,5.87l7.7,3.87c4.71,2.35,7.58,7.3,7.26,12.57l-.52,8.5c-.16,2.83.6,5.66,2.16,8.02l4.71,7.1c2.91,4.39,2.91,10.14,0,14.53l-4.71,7.14c-1.56,2.4-2.32,5.19-2.16,8.02l.52,8.5c.32,5.27-2.55,10.22-7.26,12.57l-7.62,3.83c-2.56,1.28-4.59,3.36-5.87,5.87l-3.87,7.7c-2.23,4.47-6.8,7.28-11.77,7.28-.27,0-.53,0-.8-.02l-8.5-.51c-.25-.01-.5-.02-.75-.02-2.58,0-5.13.75-7.27,2.17l-7.1,4.71c-2.2,1.46-4.73,2.18-7.27,2.18s-5.07-.73-7.26-2.18l-7.14-4.71c-2.19-1.42-4.7-2.17-7.27-2.17-.25,0-.5,0-.75.02l-8.5.51c-.27.02-.53.02-.8.02-4.97,0-9.54-2.81-11.77-7.28l-3.84-7.62c-1.27-2.55-3.35-4.59-5.86-5.87l-7.7-3.87c-4.71-2.35-7.59-7.3-7.27-12.57l.52-8.5c.16-2.83-.6-5.66-2.15-8.02l-4.67-7.14c-2.91-4.39-2.91-10.14,0-14.53l4.67-7.1c1.55-2.4,2.31-5.19,2.15-8.02l-.52-8.5c-.32-5.27,2.56-10.22,7.27-12.57l7.62-3.83c2.55-1.32,4.63-3.4,5.9-5.95l3.84-7.62c2.23-4.47,6.8-7.28,11.77-7.28.27,0,.53,0,.8.02l8.5.51c.25,0,.5.02.75.02,2.58,0,5.12-.75,7.27-2.17l7.14-4.67c2.2-1.46,4.73-2.18,7.27-2.18M205.93,63.11c-3.78,0-7.44,1.1-10.58,3.18l-7.11,4.65c-1.17.77-2.58,1.19-3.99,1.19-.14,0-.27,0-.41,0l-8.48-.51c-.38-.02-.77-.03-1.16-.03-7.31,0-13.88,4.06-17.14,10.61l-3.83,7.6c-.7,1.4-1.86,2.57-3.27,3.31l-7.58,3.81c-6.88,3.43-11.03,10.62-10.56,18.29l.52,8.5c.09,1.51-.33,3.03-1.19,4.38l-4.65,7.08c-4.25,6.41-4.25,14.72,0,21.14l4.65,7.11c.85,1.3,1.27,2.85,1.18,4.4l-.52,8.47c-.47,7.68,3.69,14.87,10.58,18.31l7.68,3.86c1.37.7,2.51,1.84,3.18,3.18l3.85,7.65c3.25,6.52,9.82,10.58,17.13,10.58.39,0,.78-.01,1.16-.04l8.5-.51c.12,0,.25-.01.39-.01,1.41,0,2.79.42,4,1.2l7.11,4.69c3.13,2.07,6.79,3.17,10.57,3.17s7.44-1.1,10.58-3.18l7.1-4.71c1.14-.76,2.54-1.17,3.95-1.17.14,0,.27,0,.41.01l8.48.51c.38.02.77.04,1.16.04,7.31,0,13.88-4.06,17.14-10.61l3.86-7.68c.71-1.4,1.82-2.51,3.19-3.2l7.63-3.84c6.87-3.43,11.02-10.61,10.55-18.29l-.52-8.5c-.09-1.52.33-3.04,1.2-4.38l4.69-7.11c4.25-6.42,4.25-14.72,0-21.15l-4.71-7.1c-.84-1.27-1.26-2.82-1.17-4.36l.52-8.47c.47-7.68-3.68-14.87-10.57-18.31l-7.68-3.86c-1.39-.71-2.51-1.82-3.2-3.2l-3.83-7.62c-3.26-6.53-9.82-10.59-17.13-10.59-.39,0-.78,0-1.16.04l-8.5.51c-.12,0-.25,0-.39,0-1.41,0-2.79-.41-3.99-1.2l-7.08-4.66c-3.12-2.07-6.78-3.17-10.56-3.17h-.01Z"/>
  </g>
  <rect class="cls-5" x="138.91" y="185.08" width="134" height="53.35" rx="10.7" ry="10.7"/>
  <path class="cls-3" d="M221.98,102.08h-33.44c-3.96,0-7.18,3.25-7.03,7.2.03.79.06,1.58.1,2.36h-15.76c-1.99,0-3.58,1.6-3.58,3.58,0,13.82,5,23.44,11.72,29.96,6.61,6.43,14.67,9.67,20.62,11.32,3.49.97,5.88,3.88,5.88,6.81,0,3.12-2.54,5.66-5.66,5.66h-3.9c-2.64,0-4.78,2.13-4.78,4.78s2.13,4.78,4.78,4.78h28.66c2.64,0,4.78-2.13,4.78-4.78s-2.13-4.78-4.78-4.78h-3.9c-3.12,0-5.66-2.54-5.66-5.66,0-2.93,2.37-5.85,5.88-6.81,5.96-1.64,14.02-4.88,20.63-11.32,6.7-6.52,11.7-16.14,11.7-29.96,0-1.99-1.6-3.58-3.58-3.58h-15.76c.04-.78.07-1.55.1-2.36.15-3.94-3.08-7.2-7.03-7.2h0ZM169.57,118.8h12.6c1.36,13.45,4.36,22.44,7.75,28.45-3.72-1.64-7.58-3.96-10.93-7.21-4.78-4.64-8.66-11.34-9.4-21.24h-.02ZM231.55,140.04c-3.34,3.25-7.21,5.57-10.93,7.21,3.39-6.02,6.39-15,7.75-28.45h12.6c-.76,9.9-4.64,16.6-9.4,21.24h-.02Z"/>
  <g class="cls-11">
    <g class="cls-11">
      <path class="cls-3" d="M177.15,209.2v-10.2l-3.7,7.42h-2.11l-3.7-7.42v10.2h-3.94v-17.04h4.27l4.42,8.9,4.44-8.9h4.25v17.04h-3.94Z"/>
      <path class="cls-3" d="M191.82,209.34c-1.26,0-2.42-.25-3.46-.74-1.04-.5-1.93-1.15-2.66-1.96-.74-.81-1.31-1.73-1.72-2.77-.41-1.04-.61-2.11-.61-3.22s.21-2.2.64-3.24c.42-1.04,1.02-1.96,1.78-2.75.76-.79,1.66-1.42,2.7-1.9s2.18-.71,3.41-.71,2.42.25,3.46.74,1.93,1.15,2.66,1.97c.74.82,1.3,1.74,1.7,2.78.4,1.04.6,2.1.6,3.17s-.21,2.2-.64,3.24c-.42,1.04-1.01,1.96-1.76,2.75s-1.65,1.43-2.69,1.91c-1.04.48-2.18.72-3.41.72ZM187.38,200.7c0,.66.1,1.29.29,1.91.19.62.48,1.16.85,1.64.38.48.84.86,1.4,1.15.56.29,1.2.43,1.92.43s1.41-.15,1.97-.46c.56-.3,1.02-.7,1.39-1.19.37-.49.64-1.04.83-1.66.18-.62.28-1.24.28-1.88s-.1-1.29-.29-1.91c-.19-.62-.48-1.16-.86-1.63-.38-.47-.85-.85-1.4-1.13-.55-.28-1.19-.42-1.91-.42s-1.4.15-1.96.44c-.55.3-1.02.68-1.39,1.16-.38.48-.66,1.03-.84,1.64-.18.62-.28,1.24-.28,1.88Z"/>
      <path class="cls-3" d="M202.59,209.2v-17.04h6.36c1.41,0,2.64.22,3.7.67,1.06.45,1.94,1.06,2.65,1.82s1.25,1.67,1.61,2.7.54,2.13.54,3.3c0,1.3-.2,2.47-.6,3.52-.4,1.05-.97,1.94-1.72,2.69-.74.74-1.64,1.32-2.69,1.73-1.05.41-2.21.61-3.49.61h-6.36ZM213.44,200.66c0-.75-.1-1.44-.3-2.05-.2-.62-.49-1.15-.88-1.6-.38-.45-.86-.79-1.42-1.03-.56-.24-1.19-.36-1.9-.36h-2.42v10.13h2.42c.72,0,1.36-.13,1.92-.38.56-.26,1.03-.61,1.4-1.07s.66-.99.86-1.61c.2-.62.3-1.29.3-2.03Z"/>
      <path class="cls-3" d="M227.1,205.84c.67,0,1.24-.14,1.7-.42.46-.28.84-.65,1.13-1.12.29-.46.49-1,.61-1.6.12-.6.18-1.21.18-1.84v-8.71h3.94v8.71c0,1.18-.15,2.29-.44,3.31-.3,1.02-.75,1.92-1.37,2.69-.62.77-1.4,1.37-2.35,1.81-.95.44-2.08.66-3.4.66s-2.52-.23-3.48-.7-1.74-1.08-2.34-1.86c-.6-.78-1.04-1.68-1.32-2.7-.28-1.02-.42-2.1-.42-3.22v-8.71h3.94v8.71c0,.66.06,1.28.19,1.87s.34,1.12.62,1.58.66.83,1.12,1.1c.46.27,1.02.41,1.69.41Z"/>
    </g>
    <text class="cls-9" transform="translate(235.95 209.2)"><tspan x="0" y="0">L</tspan></text>
    <g class="cls-11">
      <path class="cls-3" d="M166.84,224.83c0,.74-.15,1.38-.46,1.92-.3.54-.72,1-1.25,1.36-.53.36-1.14.63-1.85.82-.7.18-1.45.28-2.23.28h-8.3v-17.04h9.48c.59,0,1.13.13,1.61.38.48.26.89.59,1.22,1s.6.87.78,1.39c.18.52.28,1.05.28,1.6,0,.82-.2,1.58-.61,2.3-.41.72-1.02,1.26-1.84,1.63.98.29,1.75.8,2.32,1.54.57.74.85,1.68.85,2.83ZM156.69,215.52v3.53h3.86c.43,0,.82-.14,1.15-.43s.5-.74.5-1.34c0-.56-.15-.99-.44-1.3-.3-.3-.65-.46-1.07-.46h-4.01ZM162.83,224.04c0-.53-.15-.98-.46-1.34-.3-.37-.69-.55-1.15-.55h-4.54v3.72h4.37c.51,0,.94-.17,1.27-.5s.5-.78.5-1.32Z"/>
      <path class="cls-3" d="M181.15,225.74v3.46h-11.98v-17.04h11.76v3.46h-7.82v3.31h6.72v3.19h-6.72v3.62h8.04Z"/>
      <path class="cls-3" d="M195.52,225.74v3.46h-11.98v-17.04h11.76v3.46h-7.82v3.31h6.72v3.19h-6.72v3.62h8.04Z"/>
      <path class="cls-3" d="M201.86,219.46v9.74h-3.94v-17.04h3.07l7.94,10.01v-10.01h3.94v17.04h-3.17l-7.85-9.74Z"/>
      <path class="cls-3" d="M216.14,229.2v-17.04h6.36c1.41,0,2.64.22,3.7.67,1.06.45,1.94,1.06,2.65,1.82s1.25,1.67,1.61,2.7.54,2.13.54,3.3c0,1.3-.2,2.47-.6,3.52-.4,1.05-.97,1.94-1.72,2.69-.74.74-1.64,1.32-2.69,1.73-1.05.41-2.21.61-3.49.61h-6.36ZM226.99,220.66c0-.75-.1-1.44-.3-2.05-.2-.62-.49-1.15-.88-1.6-.38-.45-.86-.79-1.42-1.03-.56-.24-1.19-.36-1.9-.36h-2.42v10.13h2.42c.72,0,1.36-.13,1.92-.38.56-.26,1.03-.61,1.4-1.07s.66-.99.86-1.61c.2-.62.3-1.29.3-2.03Z"/>
      <path class="cls-3" d="M245.3,225.74v3.46h-11.98v-17.04h11.76v3.46h-7.82v3.31h6.72v3.19h-6.72v3.62h8.04Z"/>
    </g>
    <text class="cls-8" transform="translate(245.95 229.2)"><tspan x="0" y="0">T</tspan></text>
  </g>
</svg>